<svg xmlns="http://www.w3.org/2000/svg" xmlns:xlink="http://www.w3.org/1999/xlink" width="109.602" height="93.34" viewBox="0 0 109.602 93.34">
                                <defs>
                                  <clipPath id="clip-pathcup">
                                    <path id="Union_10" data-name="Union 10" d="M12263,13778v-15h64v-41h12v56Z" transform="translate(-11966 -8442.865)" fill="none" stroke="#fff" stroke-width="2"></path>
                                  </clipPath>
                                </defs>
                                <g id="Group_24326" data-name="Group 24326" transform="translate(-274.201 -5254.611)">
                                  <g id="Mask_Group_23" data-name="Mask Group 23" transform="translate(-3652.459 1785.452) rotate(-45)" clip-path="url(#clip-pathcup)">
                                    <g id="Group_24322" data-name="Group 24322" transform="translate(207 18.136)">
                                      <g id="Subtraction_167" data-name="Subtraction 167" transform="translate(-12177 -8458)" fill="none">
                                        <path d="M12335,13770h-56a8.009,8.009,0,0,1-8-8v-8a8,8,0,0,0,0-16v-8a8.009,8.009,0,0,1,8-8h56a8.009,8.009,0,0,1,8,8v8a8,8,0,0,0,0,16v8A8.009,8.009,0,0,1,12335,13770Z" stroke="none"></path>
                                        <path d="M 12335.0009765625 13768.0009765625 C 12338.3095703125 13768.0009765625 12341.0009765625 13765.30859375 12341.0009765625 13762 L 12341.0009765625 13755.798828125 C 12336.4423828125 13754.8701171875 12333.0009765625 13750.8291015625 12333.0009765625 13746 C 12333.0009765625 13741.171875 12336.4423828125 13737.130859375 12341.0009765625 13736.201171875 L 12341.0009765625 13729.9990234375 C 12341.0009765625 13726.6904296875 12338.3095703125 13723.9990234375 12335.0009765625 13723.9990234375 L 12278.9990234375 13723.9990234375 C 12275.6904296875 13723.9990234375 12272.9990234375 13726.6904296875 12272.9990234375 13729.9990234375 L 12272.9990234375 13736.201171875 C 12277.5576171875 13737.1298828125 12280.9990234375 13741.1708984375 12280.9990234375 13746 C 12280.9990234375 13750.828125 12277.5576171875 13754.869140625 12272.9990234375 13755.798828125 L 12272.9990234375 13762 C 12272.9990234375 13765.30859375 12275.6904296875 13768.0009765625 12278.9990234375 13768.0009765625 L 12335.0009765625 13768.0009765625 M 12335.0009765625 13770.0009765625 L 12278.9990234375 13770.0009765625 C 12274.587890625 13770.0009765625 12270.9990234375 13766.412109375 12270.9990234375 13762 L 12270.9990234375 13754 C 12275.4111328125 13753.9990234375 12278.9990234375 13750.4111328125 12278.9990234375 13746 C 12278.9990234375 13741.5888671875 12275.41015625 13738 12270.9990234375 13738 L 12270.9990234375 13729.9990234375 C 12270.9990234375 13725.587890625 12274.587890625 13721.9990234375 12278.9990234375 13721.9990234375 L 12335.0009765625 13721.9990234375 C 12339.412109375 13721.9990234375 12343.0009765625 13725.587890625 12343.0009765625 13729.9990234375 L 12343.0009765625 13738 C 12338.5888671875 13738.0009765625 12335.0009765625 13741.5888671875 12335.0009765625 13746 C 12335.0009765625 13750.4111328125 12338.58984375 13754 12343.0009765625 13754 L 12343.0009765625 13762 C 12343.0009765625 13766.412109375 12339.412109375 13770.0009765625 12335.0009765625 13770.0009765625 Z" stroke="none" fill="#fff"></path>
                                      </g>
                                    </g>
                                  </g>
                                  <g id="Group_24321" data-name="Group 24321" transform="translate(-3514.477 1653.317) rotate(-45)">
                                    <g id="Subtraction_167-2" data-name="Subtraction 167" transform="translate(-12177 -8458)" fill="none">
                                      <path d="M12335,13770h-56a8.009,8.009,0,0,1-8-8v-8a8,8,0,0,0,0-16v-8a8.009,8.009,0,0,1,8-8h56a8.009,8.009,0,0,1,8,8v8a8,8,0,0,0,0,16v8A8.009,8.009,0,0,1,12335,13770Z" stroke="none"></path>
                                      <path d="M 12335.0009765625 13768.0009765625 C 12338.3095703125 13768.0009765625 12341.0009765625 13765.30859375 12341.0009765625 13762 L 12341.0009765625 13755.798828125 C 12336.4423828125 13754.8701171875 12333.0009765625 13750.8291015625 12333.0009765625 13746 C 12333.0009765625 13741.171875 12336.4423828125 13737.130859375 12341.0009765625 13736.201171875 L 12341.0009765625 13729.9990234375 C 12341.0009765625 13726.6904296875 12338.3095703125 13723.9990234375 12335.0009765625 13723.9990234375 L 12278.9990234375 13723.9990234375 C 12275.6904296875 13723.9990234375 12272.9990234375 13726.6904296875 12272.9990234375 13729.9990234375 L 12272.9990234375 13736.201171875 C 12277.5576171875 13737.1298828125 12280.9990234375 13741.1708984375 12280.9990234375 13746 C 12280.9990234375 13750.828125 12277.5576171875 13754.869140625 12272.9990234375 13755.798828125 L 12272.9990234375 13762 C 12272.9990234375 13765.30859375 12275.6904296875 13768.0009765625 12278.9990234375 13768.0009765625 L 12335.0009765625 13768.0009765625 M 12335.0009765625 13770.0009765625 L 12278.9990234375 13770.0009765625 C 12274.587890625 13770.0009765625 12270.9990234375 13766.412109375 12270.9990234375 13762 L 12270.9990234375 13754 C 12275.4111328125 13753.9990234375 12278.9990234375 13750.4111328125 12278.9990234375 13746 C 12278.9990234375 13741.5888671875 12275.41015625 13738 12270.9990234375 13738 L 12270.9990234375 13729.9990234375 C 12270.9990234375 13725.587890625 12274.587890625 13721.9990234375 12278.9990234375 13721.9990234375 L 12335.0009765625 13721.9990234375 C 12339.412109375 13721.9990234375 12343.0009765625 13725.587890625 12343.0009765625 13729.9990234375 L 12343.0009765625 13738 C 12338.5888671875 13738.0009765625 12335.0009765625 13741.5888671875 12335.0009765625 13746 C 12335.0009765625 13750.4111328125 12338.58984375 13754 12343.0009765625 13754 L 12343.0009765625 13762 C 12343.0009765625 13766.412109375 12339.412109375 13770.0009765625 12335.0009765625 13770.0009765625 Z" stroke="none" fill="#fff"></path>
                                    </g>
                                    <g id="Group_24325" data-name="Group 24325">
                                      <rect id="Rectangle_18578" data-name="Rectangle 18578" width="8" height="2" transform="translate(120 5287)" fill="#fff"></rect>
                                      <rect id="Rectangle_18579" data-name="Rectangle 18579" width="8" height="2" transform="translate(132 5287)" fill="#fff"></rect>
                                      <rect id="Rectangle_18581" data-name="Rectangle 18581" width="8" height="2" transform="translate(144 5287)" fill="#fff"></rect>
                                      <rect id="Rectangle_18580" data-name="Rectangle 18580" width="8" height="2" transform="translate(108 5287)" fill="#fff"></rect>
                                    </g>
                                  </g>
                                </g>
                            </svg>